<svg id="Layer_2" xmlns="http://www.w3.org/2000/svg" viewBox="0 0 2254.91 189.92"><g id="Layer_1-2"><g id="Layer_1-3"><g id="Layer_1-4"><path d="M90.51,41.21c1.9-1.7,3.9-3.3,5.8-5,8.8-7.6,20-11.9,31.6-12.1,25.6-.5,44.3,15.5,50.8,35.1.5,1.5.8,3.1.9,4.7.2,1.9.1,3.8.1,5.8v79.6c0,2.5-.1,5.1-.2,7.7-.1,1.3-1,2.4-2.3,2.6-5.4.1-10.8.1-16.3.1-1.3-.2-2.2-1.3-2.2-2.6-.1-2.9-.2-5.8-.2-8.6v-72.9c-.1-1.3-.1-2.6,0-3.8.8-7-2.4-12.3-7-17.1-13.7-14-39.4-12-49.4,8.1-.7,1.4-1.1,3-1.2,4.6-.2,2.5-.2,5.1-.2,7.7v72.9c0,2.9,0,5.8-.1,8.6-.1,2.2-1.4,3.4-3.8,3.4-4.8,0-9.6,0-14.4-.1-1.7-.1-2.9-1.5-2.9-3.1-.1-2.9-.2-5.8-.2-8.6v-71c0-1.6-.1-3.2,0-4.8.7-7.3-2.6-13-7.5-17.9-13.3-13.3-37.9-11.8-48.4,7-1.1,1.9-1.8,4.1-1.9,6.4-.1,2.6-.1,5.1-.1,7.7v71c0,2.9,0,5.8-.1,8.6-.1,4.1-1,5-5.2,5-4.5,0-8.9-.1-13.4-.2-1.3-.2-2.3-1.3-2.4-2.6-.1-1.6-.2-3.2-.2-4.8C.11,124.51.11,96.31,0,68.21c-.1-4.8,1-9.6,3.2-13.8,9.9-19.5,26-29.5,47.7-29.9,11.5-.2,22,3.7,31.1,10.8,2,1.6,3.8,3.4,5.8,5,.8.2,1.7.6,2.7.9Z" style="fill:#000; stroke-width:0px;"/><path d="M895.61,159.71c-1.8-2.3-3.2-4.1-4.5-5.9-14.4-19.6-28.8-39.2-43.2-58.8-1.5-2-3.2-4-4-6.5-.4-1.5.7-3.6,2.2-3.6,4.2-.1,8.3-.2,12.5-.2,2.9.1,5.8,0,8.6-.2,15.8-2.2,21-17.8,15.2-28.7-2.9-5.5-8.3-9.2-14.5-9.8-1-.1-1.9-.2-2.9-.2h-30.8c-2.4.1-3.7,1.2-3.7,3.4-.1,2.9-.1,5.8-.1,8.6v89.3c0,2.9,0,5.8-.1,8.6s-1.3,4-4.2,4c-4.5.1-9,0-13.4,0-2.2,0-3.4-1.3-3.4-3.7-.1-2.6-.1-5.1-.1-7.7V36.01c0-3.2.2-6.4.5-9.6.2-.6.7-1.1,1.3-1.3,1.2-.3,2.5-.5,3.8-.5h54.7c9.7-.2,19.1,3.6,26.1,10.4,17,16.3,15.2,45.5-6,58.8-2.1,1.4-4.4,2.6-6.8,3.5-4.7,1.7-4.3,3.1-1.6,6.9,11.7,16,23.5,32,35.2,48,1.3,1.8,2.5,3.7,3.6,5.7.2.3-.5,1.1-.8,1.5-.2.2-.6.3-.9.3-7.6.3-14.9.4-22.7,0Z" style="fill:#000; stroke-width:0px;"/><path d="M1894.41,76.51v-44.1c0-1.9.2-3.8.5-5.7.1-.5.7-1,1.3-1.3.6-.3,1.2-.4,1.8-.5,1.6-.1,3.2-.2,4.8-.1,14.4.2,12.8-1.8,12.8,12.7.1,25.6,0,51.1,0,76.7v5.8c.1,12,9.5,21.9,21.6,22.5,13.3.8,23.8-9,24.9-20.3.3-3.2.3-6.4.3-9.6V35.91c0-11.9-.6-11.1,10.8-11.1,2.6,0,5.1.1,7.7.2,1.6.2,2.9,1.6,2.9,3.2.1,2.5.2,5.1.2,7.7v77.6c0,4.2-.3,8.3-.8,12.4-3.2,23.2-24.2,37.5-43,37.9-18.2.4-38.8-11.4-44.7-33.7-.7-3.1-1-6.3-.9-9.5-.2-14.7-.2-29.4-.2-44.1Z" style="fill:#000; stroke-width:0px;"/><path d="M333.31,92.61v-56.6c0-2.9.1-5.7.2-8.6.2-1.3,1.3-2.3,2.6-2.4,2.2-.1,4.5-.3,6.7-.3h57.5c1.9,0,3.8,0,5.8.2.6,0,1.3.2,1.8.5s1.2.8,1.2,1.4c.7,5.4.8,10.8.1,16.2-.3,1.3-1.4,2.2-2.6,2.4-2.5.1-5.1.3-7.7.3h-35.5c-2.2,0-4.5.2-6.7.4-1.1.1-1.5,1-2,1.8-.1.3-.2.6-.2.9v25.9c.2,1.6,1.6,2.9,3.2,2.9,2.5.1,5.1.2,7.7.2h34.5c2.2,0,4.5.2,6.7.3,1.3.2,2.3,1.2,2.5,2.5v15.3c-.2,1.3-1.3,2.3-2.5,2.5-2.2.1-4.5.3-6.7.3h-34.5c-2.5,0-5.1.1-7.7.2-1.7,0-3,1.2-3.2,2.9,0,.3-.1.6-.1,1,0,10.9,0,21.7.1,32.6,0,.6.2,1.2.5,1.8.3.5.9,1.1,1.4,1.2,2.2.3,4.4.5,6.7.5h38.3c1.9,0,3.8.1,5.7.5.9.3,1.6,1,1.8,1.9.3,3.2.5,6.3.5,9.5.1,9.2,0,9.1-8.8,9.1h-58.5c-2.2,0-4.5-.1-6.7-.4-.9-.2-1.6-.9-1.9-1.8-.3-2.5-.4-5.1-.4-7.6.2-19.2.2-38.4.2-57.5Z" style="fill:#000; stroke-width:0px;"/><path d="M1475.31,125.71c5.5,3.5,9.6,7.5,13.9,11.3.9,1,1,2.4.3,3.5-.4.5-.8,1-1.2,1.5-20.2,19.8-44.2,26.8-71.3,18.9-26.7-7.7-43.8-26-49.9-53.1-8.7-38.3,14.8-77.5,56.8-85.9,25.1-3.8,46.8,3,64.7,21.1.4.5.8,1,1.1,1.5.2.3.3.6.4.8-.2.6-.3,1.3-.7,1.7-4.1,3.6-8.2,7.1-12.4,10.5-1.1.8-2.5.7-3.5-.2-2.2-1.8-4.3-3.8-6.6-5.6-26.7-20.2-67.3-8.8-78.3,24.7-8.9,27.2,6.4,59.2,38.9,65.4,15.2,2.9,29.2-.7,41.3-10.7,2.1-1.4,4-3.2,6.5-5.4Z" style="fill:#000; stroke-width:0px;"/><path d="M594.11,102.51v-45.1c0-2.6,0-5.1-.1-7.7-.1-2.6-1.4-3.9-4.3-4-3.8-.1-7.7-.1-11.5-.1-1.9,0-3.8-.1-5.7-.2-1.7,0-3-1.3-3.2-3,0-5.1,0-10.2.1-15.3,0-1.1,1.3-2.2,2.6-2.3,1-.1,1.9-.2,2.9-.2h59.4c1.3,0,2.5.1,3.8.5.9.3,1.6,1,1.9,1.8.3,1.6.4,3.2.4,4.8-.2,15.3,2.3,13.8-13.7,13.9-2.9,0-5.7.2-8.6.3-1.3.2-2.3,1.2-2.5,2.5-.1,1.6-.2,3.2-.2,4.8v95c0,2.9-.1,5.8-.2,8.6-.1,1.7-1.5,3-3.1,3-5.1,0-10.2,0-15.3-.1-1.3-.2-2.3-1.2-2.4-2.5-.1-2.9-.2-5.7-.2-8.6-.1-15.4-.1-30.7-.1-46.1Z" style="fill:#000; stroke-width:0px;"/><path d="M1662.31,92.51v-56.6c0-2.6.1-5.1.2-7.7,0-1.7,1.2-3.1,2.9-3.2,1.6-.1,3.2-.2,4.8-.2,3.5,0,7,.1,10.5.2,1.3.1,2.4,1,2.6,2.3.1,3.2.3,6.4.3,9.6v90.2c0,2.9.1,5.8.2,8.6.2,1.6,1.5,2.9,3.1,3,2.6.1,5.1.1,7.7.2h24.9c1.9,0,3.8,0,5.8.1,1.9,0,3.5,1.7,3.5,3.6v.2c0,4.8-.1,9.6-.1,14.4-.2,1.3-1.2,2.3-2.5,2.5-1.3.1-2.5.2-3.8.2h-53.7c-1.3,0-2.5-.2-3.8-.4-1-.1-1.8-.8-2-1.8-.3-2.5-.4-5.1-.4-7.7-.2-19.1-.2-38.3-.2-57.5Z" style="fill:#000; stroke-width:0px;"/><path d="M1168.41,121.51c-10.9-22.7-21.8-45.5-32.7-68.1-.7-1.4-1.5-2.8-2.2-4-1.4,0-2.6.8-3.1,2.1-11.6,24.1-23.2,48.3-34.8,72.4-.4.9-.7,1.8-.8,2.7,0,.6.3,1.2.8,1.5.9.3,1.8.5,2.8.5h67.9c.6,0,1.3-.1,1.9-.1,1.7-.1,2.6-1.7,1.8-3.5-.5-1.2-1-2.3-1.6-3.5Z" style="fill:#000; stroke-width:0px;"/><path d="M1132.41.01c-50.6-.7-95,41.3-94.9,95.2.1,49.7,39.9,94.3,94.6,94.7,50.8.4,95.4-39.8,95.4-94.9,0-57.8-47.7-95.8-95.1-95ZM1207.11,95.11c-.2,42.8-35.6,74.4-74.7,74.3-37-.1-74.4-29.2-74.3-74.7.1-43.5,34.9-74.5,74.7-74.3,41,0,74.3,33.3,74.3,74.3v.4Z" style="fill:#000; stroke-width:0px;"/><path d="M2245.01,96.31c-2.5-2.9-5.5-5.4-8.8-7.3-1.4-.8-2.8-1.5-3.6-3.3,1.8-2.4,3.9-4.8,5.7-7.5,5.8-8.8,7.1-18.3,4.4-28.4-3.7-13.5-16.5-25-32.5-25l-42.1.1c-.6,0-1.3.1-1.9.2-1.3.1-2.3,1.1-2.6,2.4-.1,1.9-.2,3.8-.2,5.7v115.9c0,2.9.1,5.7.4,8.6.3.9,1,1.6,1.9,1.8,1.6.3,3.1.5,4.7.4h45c1.6,0,3.2,0,4.8-.2,15.3-1.8,26.2-9.8,31.8-24.1s3-27.6-7-39.3ZM2187.71,45.91c5.3,0,10.7-.1,16,0,1.7,0,3.4.1,5.1.1,5.6.2,11.5,4.2,13.6,11.6,1.7,6.3-.6,13.1-5.8,17-1.7,1.4-3.8,2.3-6,2.7-.6.1-1.1.1-1.7.2-1.6.2-3.2.3-4.8.3h-.2c-4,.1-8,.1-12.1,0h-.4c-6.6-.1-6.9-.4-7-7.1v-9.5h.1c0-3.8,0-7.6-.1-11.4.1-2.3,1.3-3.9,3.3-3.9ZM2233.51,120.11c-.4,6.3-3.4,11.5-7.9,14.8-2.7,2-6,3.3-9.6,3.7-3.2.3-6.4.3-9.6.3h-17.2c-3.7,0-4.7-1-4.8-4.4-.1-5.4,0-10.8,0-16.2h0v-15.3c0-2,.8-3.3,2.4-3.8.5-.2,1.2-.2,1.9-.2h24c2.2.1,4.4.4,6.6,1.1,10.8,2.9,14.7,12.5,14.2,20Z" style="fill:#000; stroke-width:0px;"/></g></g></g></svg>