<?xml version="1.0" encoding="UTF-8"?>
<svg id="Layer_2" data-name="Layer 2" xmlns="http://www.w3.org/2000/svg" viewBox="0 0 190 189.92">
  <g id="Layer_2-2" data-name="Layer 2">
    <g id="Layer_1-2" data-name="Layer 1-2">
      <g id="Layer_1-3" data-name="Layer 1-3">
        <g id="Layer_1-4" data-name="Layer 1-4">
          <path d="M130.9,121.51c-10.9-22.7-21.8-45.5-32.7-68.1-.7-1.4-1.5-2.8-2.2-4-1.4,0-2.6.8-3.1,2.1-11.6,24.1-23.2,48.3-34.8,72.4-.4.9-.7,1.8-.8,2.7,0,.6.3,1.2.8,1.5.9.3,1.8.5,2.8.5h67.9c.6,0,1.3-.1,1.9-.1,1.7-.1,2.6-1.7,1.8-3.5-.5-1.2-1-2.3-1.6-3.5h0Z" style="fill: #fff; stroke-width: 0px;"/>
          <path d="M94.9.01C44.3-.69-.1,41.31,0,95.21c.1,49.7,39.9,94.3,94.6,94.7,50.8.4,95.4-39.8,95.4-94.9C190,37.21,142.3-.79,94.9.01ZM169.6,95.11c-.2,42.8-35.6,74.4-74.7,74.3-37-.1-74.4-29.2-74.3-74.7.1-43.5,34.9-74.5,74.7-74.3,41,0,74.3,33.3,74.3,74.3,0,0,0,.4,0,.4Z" style="fill: #fff; stroke-width: 0px;"/>
        </g>
      </g>
    </g>
  </g>
</svg>